<?xml version="1.0" ?><svg enable-background="new 0 0 100 100" id="Livello_1" version="1.1" viewBox="0 0 100 100" xml:space="preserve" xmlns="http://www.w3.org/2000/svg" xmlns:xlink="http://www.w3.org/1999/xlink" fill="#fc636b" stroke="000000"><g><path d="M61.303,27.696l6.428-0.003c0.276,0,0.5-0.224,0.5-0.5V16.336c0-0.251-0.186-0.463-0.435-0.496   c-1.186-0.157-5.052-0.481-9.433-0.481c-9.938,0-16.112,6.34-16.112,16.545v8.452H32.27c-0.276,0-0.5,0.224-0.5,0.5v12.139   c0,0.276,0.224,0.5,0.5,0.5h9.981v30.647c0,0.276,0.224,0.5,0.5,0.5h12.535c0.276,0,0.5-0.224,0.5-0.5V53.494h9.956   c0.251,0,0.464-0.187,0.496-0.437l1.564-12.139c0.019-0.143-0.025-0.286-0.121-0.394c-0.095-0.108-0.231-0.17-0.375-0.17H55.786   v-7.25C55.786,29.68,56.688,27.696,61.303,27.696z M55.286,41.355h11.452l-1.436,11.139H55.286c-0.276,0-0.5,0.224-0.5,0.5v30.647   H43.251V52.994c0-0.276-0.224-0.5-0.5-0.5H32.77V41.355h9.981c0.276,0,0.5-0.224,0.5-0.5v-8.952   c0-9.733,5.649-15.545,15.112-15.545c3.891,0,7.358,0.258,8.867,0.422v9.913l-5.928,0.003c-5.728,0-6.517,3.08-6.517,6.409v7.75   C54.786,41.132,55.01,41.355,55.286,41.355z"/></g></svg>