<?xml version="1.0" encoding="UTF-8"?>
<!-- Generator: Adobe Illustrator 15.0.2, SVG Export Plug-In . SVG Version: 6.00 Build 0)  -->
<!DOCTYPE svg PUBLIC "-//W3C//DTD SVG 1.1//EN" "http://www.w3.org/Graphics/SVG/1.1/DTD/svg11.dtd">
<svg xmlns="http://www.w3.org/2000/svg" xmlns:xlink="http://www.w3.org/1999/xlink" version="1.1" id="Layer_1" x="0px" y="0px" width="512px" height="391.68px" viewBox="-0.333 0 512 391.68" enable-background="new -0.333 0 512 391.68" xml:space="preserve" fill="#fff" stroke="000000">
<path d="M481.205,165.384H103.673L217.056,52.008c11.902-11.899,11.902-31.177,0-43.083c-11.887-11.903-31.188-11.896-43.073,0  L8.589,174.302c-5.705,5.705-8.921,13.459-8.921,21.545c0,8.078,3.216,15.826,8.921,21.538l165.394,165.377  c5.949,5.949,13.74,8.918,21.541,8.918c7.798,0,15.596-2.969,21.538-8.918c11.903-11.9,11.903-31.184,0-43.083l-113.389-113.37  h377.532c16.817,0,30.463-13.651,30.463-30.462C511.668,179.014,498.022,165.384,481.205,165.384z" fill="#000000"/>
</svg>
